<?xml version="1.0" encoding="utf-8"?>
<!-- Generator: Adobe Illustrator 19.0.0, SVG Export Plug-In . SVG Version: 6.00 Build 0)  -->
<svg version="1.1" id="Layer_1" xmlns="http://www.w3.org/2000/svg" xmlns:xlink="http://www.w3.org/1999/xlink" x="0px" y="0px" height="80px" width="80px"
	 viewBox="0 0 80 80" style="enable-background:new 0 0 80 80;" xml:space="preserve">
<style type="text/css">
	.st0{fill:#0000FF;}
	.st1{fill:#FFFFFF;}
</style>
<g id="XMLID_31_">
	<path id="XMLID_2_" class="st0" d="M40,3c20.4,0,37,16.6,37,37S60.4,77,40,77S3,60.4,3,40S19.6,3,40,3 M40,2C19,2,2,19,2,40
		s17,38,38,38s38-17,38-38S61,2,40,2L40,2z"/>
</g>
<g id="XMLID_1_">
	<path id="XMLID_17_" class="st1" d="M40,4c19.9,0,36,16.1,36,36S59.9,76,40,76S4,59.9,4,40S20.1,4,40,4 M40,3C19.6,3,3,19.6,3,40
		s16.6,37,37,37s37-16.6,37-37S60.4,3,40,3L40,3z"/>
</g>
<g id="XMLID_7_">
	<g id="XMLID_12_">
		<path id="XMLID_14_" class="st1" d="M40.5,55.5c-0.3,0-0.5-0.2-0.5-0.5V26c0-0.3,0.2-0.5,0.5-0.5S41,25.7,41,26v29
			C41,55.3,40.8,55.5,40.5,55.5z"/>
	</g>
	<g id="XMLID_10_">
		<path id="XMLID_11_" class="st1" d="M54,42H25c-0.3,0-0.5-0.2-0.5-0.5S24.7,41,25,41h29c0.3,0,0.5,0.2,0.5,0.5S54.3,42,54,42z"/>
	</g>
	<g id="XMLID_6_">
		<path id="XMLID_8_" class="st0" d="M39.5,55.5c-0.3,0-0.5-0.2-0.5-0.5V26c0-0.3,0.2-0.5,0.5-0.5S40,25.7,40,26v29
			C40,55.3,39.8,55.5,39.5,55.5z"/>
	</g>
	<g id="XMLID_5_">
		<path id="XMLID_9_" class="st0" d="M54,41H25c-0.3,0-0.5-0.2-0.5-0.5S24.7,40,25,40h29c0.3,0,0.5,0.2,0.5,0.5S54.3,41,54,41z"/>
	</g>
</g>
</svg>
