<?xml version="1.0" encoding="utf-8"?>
<!-- Generator: Adobe Illustrator 19.0.0, SVG Export Plug-In . SVG Version: 6.00 Build 0)  -->
<svg version="1.1" id="Layer_1" xmlns="http://www.w3.org/2000/svg" xmlns:xlink="http://www.w3.org/1999/xlink" x="0px" y="0px" height="80" width="80"
	 viewBox="0 0 80 80" style="enable-background:new 0 0 80 80;" xml:space="preserve">
<g id="XMLID_23_">
	<path id="XMLID_28_" d="M21.9,44.2c-0.8-0.8-1.2-1.9-1.2-3.4l0-0.8l0-0.8c0-1.5,0.4-2.6,1.2-3.4c0.8-0.8,1.8-1.2,3.2-1.2
		c0.9,0,1.6,0.2,2.3,0.5s1.1,0.7,1.4,1.2c0.3,0.5,0.5,1,0.5,1.5c0,0.1,0,0.2-0.1,0.3c-0.1,0.1-0.2,0.1-0.3,0.1h-0.3
		c-0.1,0-0.2,0-0.3-0.1c-0.1-0.1-0.1-0.2-0.2-0.3c-0.3-0.7-0.6-1.3-1.1-1.6c-0.5-0.3-1.1-0.5-1.8-0.5c-1,0-1.7,0.3-2.3,0.9
		c-0.6,0.6-0.9,1.5-0.9,2.7l0,0.7l0,0.7c0,1.2,0.3,2.1,0.9,2.7c0.6,0.6,1.3,0.9,2.3,0.9c0.7,0,1.3-0.2,1.8-0.5
		c0.5-0.3,0.9-0.8,1.1-1.6c0.1-0.2,0.1-0.3,0.2-0.3c0.1-0.1,0.2-0.1,0.3-0.1h0.3c0.1,0,0.2,0,0.3,0.1s0.1,0.2,0.1,0.3
		c0,0.5-0.2,1-0.5,1.5c-0.3,0.5-0.8,0.9-1.4,1.2c-0.6,0.3-1.4,0.5-2.3,0.5C23.7,45.4,22.6,45,21.9,44.2z"/>
	<path id="XMLID_61_" d="M32,45.1c-0.1-0.1-0.1-0.2-0.1-0.3V31.4c0-0.1,0-0.2,0.1-0.3c0.1-0.1,0.2-0.1,0.3-0.1h0.3
		c0.1,0,0.2,0,0.3,0.1s0.1,0.2,0.1,0.3v13.3c0,0.1,0,0.2-0.1,0.3s-0.2,0.1-0.3,0.1h-0.3C32.2,45.2,32.1,45.2,32,45.1z"/>
	<path id="XMLID_63_" d="M36.3,32.5c-0.1-0.1-0.1-0.2-0.1-0.3v-0.8c0-0.1,0-0.2,0.1-0.3s0.2-0.1,0.3-0.1h0.8c0.1,0,0.2,0,0.3,0.1
		c0.1,0.1,0.1,0.2,0.1,0.3v0.8c0,0.1,0,0.2-0.1,0.3c-0.1,0.1-0.2,0.1-0.3,0.1h-0.8C36.4,32.7,36.3,32.6,36.3,32.5z M36.5,45.1
		c-0.1-0.1-0.1-0.2-0.1-0.3v-9.5c0-0.1,0-0.2,0.1-0.3c0.1-0.1,0.2-0.1,0.3-0.1h0.3c0.1,0,0.2,0,0.3,0.1c0.1,0.1,0.1,0.2,0.1,0.3v9.5
		c0,0.1,0,0.2-0.1,0.3c-0.1,0.1-0.2,0.1-0.3,0.1h-0.3C36.7,45.2,36.6,45.2,36.5,45.1z"/>
	<path id="XMLID_67_" d="M41.5,44.2c-0.8-0.8-1.2-1.9-1.2-3.4l0-0.8l0-0.8c0-1.5,0.4-2.6,1.2-3.4c0.8-0.8,1.8-1.2,3.2-1.2
		c0.9,0,1.6,0.2,2.3,0.5s1.1,0.7,1.4,1.2c0.3,0.5,0.5,1,0.5,1.5c0,0.1,0,0.2-0.1,0.3c-0.1,0.1-0.2,0.1-0.3,0.1h-0.3
		c-0.1,0-0.2,0-0.3-0.1c-0.1-0.1-0.1-0.2-0.2-0.3c-0.3-0.7-0.6-1.3-1.1-1.6c-0.5-0.3-1.1-0.5-1.8-0.5c-1,0-1.7,0.3-2.3,0.9
		c-0.6,0.6-0.9,1.5-0.9,2.7l0,0.7l0,0.7c0,1.2,0.3,2.1,0.9,2.7c0.6,0.6,1.3,0.9,2.3,0.9c0.7,0,1.3-0.2,1.8-0.5
		c0.5-0.3,0.9-0.8,1.1-1.6c0.1-0.2,0.1-0.3,0.2-0.3c0.1-0.1,0.2-0.1,0.3-0.1h0.3c0.1,0,0.2,0,0.3,0.1s0.1,0.2,0.1,0.3
		c0,0.5-0.2,1-0.5,1.5c-0.3,0.5-0.8,0.9-1.4,1.2c-0.6,0.3-1.4,0.5-2.3,0.5C43.4,45.4,42.3,45,41.5,44.2z"/>
	<path id="XMLID_72_" d="M51.7,45.1c-0.1-0.1-0.1-0.2-0.1-0.3V31.4c0-0.1,0-0.2,0.1-0.3C51.8,31,51.9,31,52,31h0.3
		c0.1,0,0.2,0,0.3,0.1s0.1,0.2,0.1,0.3v7.1l4.5-3.4c0.2-0.2,0.4-0.3,0.4-0.3c0.1,0,0.2,0,0.4,0h0.4c0.1,0,0.2,0,0.3,0.1
		s0.1,0.2,0.1,0.3c0,0.1-0.1,0.3-0.3,0.4l-5.1,3.8l5.6,5c0.2,0.2,0.3,0.3,0.3,0.4c0,0.1,0,0.2-0.1,0.3c-0.1,0.1-0.2,0.1-0.3,0.1
		h-0.3c-0.2,0-0.3,0-0.4,0c-0.1,0-0.2-0.1-0.4-0.3l-5-4.5v4.4c0,0.1,0,0.2-0.1,0.3s-0.2,0.1-0.3,0.1H52
		C51.9,45.2,51.8,45.2,51.7,45.1z"/>
</g>
<g id="XMLID_31_">
	<path id="XMLID_13_" d="M40,3c20.4,0,37,16.6,37,37S60.4,77,40,77S3,60.4,3,40S19.6,3,40,3 M40,2C19,2,2,19,2,40s17,38,38,38
		s38-17,38-38S61,2,40,2L40,2z"/>
</g>
</svg>
