<?xml version="1.0" encoding="utf-8"?>
<!-- Generator: Adobe Illustrator 19.0.0, SVG Export Plug-In . SVG Version: 6.00 Build 0)  -->
<svg version="1.1" id="Layer_1" xmlns="http://www.w3.org/2000/svg" xmlns:xlink="http://www.w3.org/1999/xlink" x="0px" y="0px" height="80" width="80"
	 viewBox="0 0 80 80" style="enable-background:new 0 0 80 80;" xml:space="preserve">
<g id="XMLID_2_">
	<g id="XMLID_1_">
		<path id="XMLID_25_" d="M40,1.5c21.2,0,38.5,17.3,38.5,38.5S61.2,78.5,40,78.5S1.5,61.2,1.5,40S18.8,1.5,40,1.5 M40,0.5
			C18.2,0.5,0.5,18.2,0.5,40S18.2,79.5,40,79.5S79.5,61.8,79.5,40S61.8,0.5,40,0.5L40,0.5z"/>
	</g>
	<g id="XMLID_3_">
		<path id="XMLID_6_" d="M16.6,45.1c-0.1-0.1-0.1-0.2-0.1-0.3v-9.5c0-0.1,0-0.2,0.1-0.3c0.1-0.1,0.2-0.1,0.3-0.1h0.3
			c0.1,0,0.2,0,0.3,0.1c0.1,0.1,0.1,0.2,0.1,0.3v0.7c0.3-0.4,0.8-0.8,1.2-1s1-0.3,1.7-0.3c1.5,0,2.6,0.6,3.2,1.9
			c0.3-0.6,0.8-1,1.4-1.4c0.6-0.3,1.3-0.5,2-0.5c1.1,0,2,0.4,2.7,1.1c0.7,0.8,1,1.8,1,3.2v5.8c0,0.1,0,0.2-0.1,0.3s-0.2,0.1-0.3,0.1
			h-0.3c-0.1,0-0.2,0-0.3-0.1s-0.1-0.2-0.1-0.3v-5.6c0-1.2-0.3-2.1-0.8-2.6c-0.5-0.5-1.2-0.8-2-0.8c-0.7,0-1.3,0.3-1.9,0.8
			c-0.5,0.5-0.8,1.4-0.8,2.6v5.6c0,0.1,0,0.2-0.1,0.3c-0.1,0.1-0.2,0.1-0.3,0.1h-0.3c-0.1,0-0.2,0-0.3-0.1s-0.1-0.2-0.1-0.3v-5.6
			c0-1.2-0.3-2.1-0.8-2.6c-0.5-0.5-1.2-0.8-1.9-0.8c-0.7,0-1.3,0.3-1.9,0.8c-0.5,0.5-0.8,1.4-0.8,2.6v5.6c0,0.1,0,0.2-0.1,0.3
			c-0.1,0.1-0.2,0.1-0.3,0.1h-0.3C16.8,45.2,16.7,45.2,16.6,45.1z"/>
		<path id="XMLID_8_" d="M34.8,44.1c-0.8-0.8-1.2-1.9-1.2-3.3l0-0.8l0-0.8c0-1.3,0.4-2.4,1.2-3.3c0.8-0.8,1.8-1.3,3.2-1.3
			c1.4,0,2.5,0.4,3.2,1.3c0.8,0.8,1.2,1.9,1.2,3.3c0,0.1,0,0.4,0,0.8s0,0.7,0,0.8c0,1.3-0.4,2.4-1.2,3.3c-0.8,0.8-1.8,1.3-3.2,1.3
			C36.6,45.4,35.6,45,34.8,44.1z M40.3,43.3c0.6-0.6,0.9-1.5,0.9-2.6c0-0.1,0-0.4,0-0.7c0-0.4,0-0.6,0-0.7c0-1.1-0.3-2-0.9-2.6
			c-0.6-0.6-1.3-0.9-2.3-0.9s-1.7,0.3-2.3,0.9c-0.6,0.6-0.9,1.5-0.9,2.6l0,0.7l0,0.7c0,1.1,0.4,2,0.9,2.6c0.6,0.6,1.3,0.9,2.3,0.9
			S39.7,43.9,40.3,43.3z"/>
		<path id="XMLID_12_" d="M47.7,44.7L44,35.4l0-0.2c0-0.1,0-0.2,0.1-0.3c0.1-0.1,0.2-0.1,0.3-0.1h0.4c0.1,0,0.2,0,0.3,0.1
			s0.1,0.1,0.2,0.2l3.4,8.6l3.4-8.6c0-0.1,0.1-0.1,0.2-0.2c0.1-0.1,0.2-0.1,0.3-0.1h0.4c0.1,0,0.2,0,0.3,0.1
			c0.1,0.1,0.1,0.2,0.1,0.3l0,0.2l-3.7,9.3c-0.1,0.3-0.4,0.5-0.8,0.5h-0.3C48.1,45.2,47.8,45,47.7,44.7z"/>
		<path id="XMLID_17_" d="M56,44.2c-0.8-0.8-1.2-2-1.3-3.4l0-0.8l0-0.8c0.1-1.4,0.5-2.5,1.3-3.3c0.8-0.8,1.8-1.3,3.1-1.3
			c1.4,0,2.5,0.5,3.3,1.4c0.8,0.9,1.2,2.2,1.2,3.8v0.3c0,0.1,0,0.2-0.1,0.3c-0.1,0.1-0.2,0.1-0.3,0.1h-7.1v0.2
			c0,0.6,0.2,1.2,0.4,1.8s0.6,1,1.1,1.3c0.5,0.3,1,0.5,1.6,0.5c0.7,0,1.3-0.1,1.8-0.4c0.5-0.3,0.8-0.6,1-0.9
			c0.1-0.2,0.2-0.3,0.3-0.3s0.2-0.1,0.3-0.1h0.3c0.1,0,0.2,0,0.3,0.1c0.1,0.1,0.1,0.2,0.1,0.3c0,0.3-0.2,0.6-0.5,1s-0.8,0.7-1.5,1
			c-0.6,0.3-1.3,0.4-2.1,0.4C57.8,45.4,56.8,45,56,44.2z M62.3,39.4L62.3,39.4c0-1.1-0.3-2-0.9-2.6c-0.6-0.7-1.4-1-2.3-1
			c-1,0-1.7,0.3-2.3,1c-0.6,0.7-0.8,1.5-0.8,2.5v0.1H62.3z"/>
	</g>
</g>
</svg>
