<?xml version="1.0" encoding="utf-8"?>
<!-- Generator: Adobe Illustrator 19.0.0, SVG Export Plug-In . SVG Version: 6.00 Build 0)  -->
<svg version="1.1" id="Layer_1" xmlns="http://www.w3.org/2000/svg" xmlns:xlink="http://www.w3.org/1999/xlink" x="0px" y="0px" width="80px" height="80px"
	 viewBox="0 0 80 80" style="enable-background:new 0 0 80 80;" xml:space="preserve">
<style type="text/css">
	.st0{fill:#FFFFFF;}
</style>
<g id="XMLID_31_">
	<path id="XMLID_3_" class="st0" d="M40,4c19.9,0,36,16.1,36,36S59.9,76,40,76S4,59.9,4,40S20.1,4,40,4 M40,2C19,2,2,19,2,40
		s17,38,38,38s38-17,38-38S61,2,40,2L40,2z"/>
</g>
<g id="XMLID_1_">
	<path id="XMLID_6_" d="M40,6c18.7,0,34,15.3,34,34S58.7,74,40,74S6,58.7,6,40S21.3,6,40,6 M40,4C20.1,4,4,20.1,4,40s16.1,36,36,36
		s36-16.1,36-36S59.9,4,40,4L40,4z"/>
</g>
</svg>
